<!-- Minimal Space UI Sprite (neon-ready) -->
<svg xmlns="http://www.w3.org/2000/svg" style="display:none">
  <symbol id="ico-play" viewBox="0 0 24 24">
    <path fill="currentColor" d="M8 5v14l11-7z"/>
  </symbol>
  <symbol id="ico-rush" viewBox="0 0 24 24">
    <circle cx="12" cy="12" r="9" fill="none" stroke="currentColor" stroke-width="2"/>
    <path d="M12 7v6l4 2" fill="none" stroke="currentColor" stroke-width="2" stroke-linecap="round"/>
  </symbol>
  <symbol id="ico-coin" viewBox="0 0 24 24">
    <ellipse cx="12" cy="8" rx="8" ry="4" fill="currentColor"/>
    <path d="M4 8v8c0 2.2 3.6 4 8 4s8-1.8 8-4V8" fill="none" stroke="currentColor" stroke-width="2"/>
  </symbol>
  <symbol id="ico-gift" viewBox="0 0 24 24">
    <rect x="3" y="9" width="18" height="12" rx="2" fill="none" stroke="currentColor" stroke-width="2"/>
    <path d="M3 13h18M12 9v12" stroke="currentColor" stroke-width="2"/>
    <path d="M12 9c2.2 0 4-1 4-2s-1-2-2-2-2 .9-2 2c0-1.1-.9-2-2-2s-2 1-2 2 1.8 2 4 2Z" fill="none" stroke="currentColor" stroke-width="2"/>
  </symbol>
  <symbol id="ico-user" viewBox="0 0 24 24">
    <circle cx="12" cy="8" r="4" fill="none" stroke="currentColor" stroke-width="2"/>
    <path d="M4 20a8 8 0 0 1 16 0" fill="none" stroke="currentColor" stroke-width="2"/>
  </symbol>
  <symbol id="ico-mail" viewBox="0 0 24 24">
    <rect x="3" y="5" width="18" height="14" rx="2" fill="none" stroke="currentColor" stroke-width="2"/>
    <path d="M3 7l9 6 9-6" fill="none" stroke="currentColor" stroke-width="2"/>
  </symbol>
  <symbol id="ico-wrench" viewBox="0 0 24 24">
    <path d="M14 7a4 4 0 1 0-3 6l-6 6 2 2 6-6a4 4 0 0 0 1-8Z" fill="none" stroke="currentColor" stroke-width="2"/>
  </symbol>
  <symbol id="ico-friends" viewBox="0 0 24 24">
    <circle cx="9" cy="8" r="3" fill="none" stroke="currentColor" stroke-width="2"/>
    <path d="M3 20a6 6 0 0 1 12 0" fill="none" stroke="currentColor" stroke-width="2"/>
    <circle cx="17" cy="9" r="2" fill="none" stroke="currentColor" stroke-width="2"/>
    <path d="M12 20a6 6 0 0 1 8 0" fill="none" stroke="currentColor" stroke-width="2"/>
  </symbol>
  <symbol id="ico-cart" viewBox="0 0 24 24">
    <path d="M3 5h2l2 12h10l2-8H7" fill="none" stroke="currentColor" stroke-width="2" stroke-linecap="round"/>
    <circle cx="9" cy="20" r="1.6" fill="currentColor"/><circle cx="17" cy="20" r="1.6" fill="currentColor"/>
  </symbol>
  <symbol id="ico-share" viewBox="0 0 24 24">
    <path d="M4 12v7a1 1 0 0 0 1 1h14a1 1 0 0 0 1-1v-7" fill="none" stroke="currentColor" stroke-width="2"/>
    <path d="M12 3v12m0-12 4 4m-4-4-4 4" fill="none" stroke="currentColor" stroke-width="2" stroke-linecap="round"/>
  </symbol>
</svg>
